P3
# example from the man page
2 3
255
255 0   0   0   255 0
0   0 255   0   255 255
100 0 200   150 100 250
